<svg height="18" viewBox="0 0 18 18" width="18" xmlns="http://www.w3.org/2000/svg"><path d="m5.043 9.075c-1.493 1.406-3.095 4.855-2.2 5.8.761.807 3.087-.468 4.681-1.732.463 1.909 1.581 4.033 2.594 4.015 1.2-.023 1.831-3.056 1.888-5.133 1.987.571 4.932.562 5.4-.471.534-1.186-2.4-3.27-4.271-4.111-.145-.066-.291-.112-.437-.165.03-.066.066-.126.094-.194.773-1.9.8-5.7-.4-6.192s-3.192 2.519-3.967 4.417c-.046.113-.075.226-.113.339l-.012-.009c-1.511-1.382-5.071-2.72-5.947-1.759s1.2 3.772 2.713 5.176c-.007.007-.016.012-.023.019z" fill="#f37b7c"/><circle cx="9.25" cy="9.545" fill="#eee170" r="1.812"/></svg>